<svg width="105" height="38" viewBox="0 0 105 38" fill="none" xmlns="http://www.w3.org/2000/svg">
<path fill-rule="evenodd" clip-rule="evenodd" d="M68.3783 22.3918V15.4625C68.7344 12.4947 71.2986 5.56188 78.7063 1.57314C81.318 0.386011 86.755 -1.27597 87.6097 1.57314C88.6782 5.13452 86.5413 17.9555 73.7204 17.5994C73.2455 14.2754 74.2902 7.20013 82.2677 5.49067C82.5051 5.49067 82.7663 5.56189 81.9115 5.8468C80.8431 6.20294 75.501 10.1205 75.8572 15.8187C77.994 15.7 82.7663 14.1804 84.7606 9.05205C85.2355 7.27136 86.0427 3.42506 85.4729 2.28542C84.7606 0.86087 75.501 4.27366 74.4326 7.4789C72.426 10.9189 72.496 12.7436 72.5997 15.4452C72.6248 16.0999 72.6519 16.8062 72.6519 17.5994V36.8308H68.3783V35.754C67.0613 36.6578 65.4668 37.1867 63.7488 37.1867C58.7629 37.1867 55.5576 33.5194 55.5576 28.9956C55.5576 24.4717 58.8688 20.4483 63.3927 20.4483C65.2118 20.4483 66.9501 21.222 68.3783 22.3918ZM68.3783 27.2116C67.6797 25.5403 66.0294 24.3659 64.1048 24.3659C61.5478 24.3659 59.475 26.4387 59.475 28.9957C59.475 31.5527 61.5478 33.6255 64.1048 33.6255C66.0294 33.6255 67.6797 32.4511 68.3783 30.7798V27.2116Z" fill="#FFFEFE"/>
<path fill-rule="evenodd" clip-rule="evenodd" d="M3.16844 35.581C4.66817 36.5526 6.51643 37.0384 8.71322 37.0384C11.1001 37.0384 13.0329 36.4364 14.5115 35.2324C16.0112 34.0284 16.7611 32.402 16.7611 30.353C16.7611 29.7193 16.6766 29.1385 16.5076 28.6104C16.3597 28.0612 16.1696 27.5965 15.9373 27.2163C15.726 26.8361 15.4092 26.4664 14.9867 26.1073C14.5643 25.7482 14.1841 25.4631 13.8461 25.2518C13.5293 25.0406 13.0646 24.8188 12.452 24.5865C11.8605 24.333 11.3853 24.1534 11.0262 24.0478C10.6882 23.9211 10.1813 23.7521 9.50533 23.5409C7.85774 23.0339 6.73822 22.5692 6.14678 22.1468C5.57646 21.7032 5.2913 21.1329 5.2913 20.4358C5.2913 19.781 5.54478 19.2529 6.05173 18.8516C6.5798 18.4291 7.29798 18.2179 8.20627 18.2179C10.1496 18.2179 11.5648 19.1684 12.452 21.0695L16.1274 18.9466C15.367 17.3835 14.3002 16.169 12.9273 15.3029C11.5754 14.4158 10.0017 13.9722 8.20627 13.9722C6.19959 13.9722 4.47807 14.5742 3.04171 15.7782C1.62647 16.9611 0.918849 18.5559 0.918849 20.5625C0.918849 21.5764 1.09839 22.4636 1.45748 23.224C1.81657 23.9845 2.33409 24.6181 3.01002 25.1251C3.70708 25.6109 4.39358 26.0017 5.06951 26.2974C5.76657 26.5931 6.61149 26.8889 7.60427 27.1846C9.39972 27.6915 10.646 28.1668 11.343 28.6104C12.0401 29.0328 12.3886 29.6348 12.3886 30.4164C12.3886 31.0923 12.1035 31.6521 11.5331 32.0957C10.9628 32.5393 10.0651 32.761 8.83996 32.761C6.3052 32.761 4.60481 31.631 3.73876 29.3708L0 31.557C0.612566 33.2469 1.66871 34.5882 3.16844 35.581ZM27.7771 33.3314C25.348 33.3314 23.8588 32.3386 23.3096 30.353H35.2546C35.3602 29.7616 35.4131 29.2018 35.4131 28.6738C35.4131 26.308 34.6526 24.3224 33.1318 22.7171C31.632 21.1117 29.7204 20.3091 27.3969 20.3091C24.9466 20.3091 22.9399 21.1117 21.3768 22.7171C19.8137 24.3013 19.0322 26.2869 19.0322 28.6738C19.0322 31.0818 19.8243 33.0779 21.4085 34.6621C22.9928 36.2463 25.0945 37.0384 27.7137 37.0384C30.7554 37.0384 33.0578 35.9084 34.6209 33.6482L31.3258 31.7471C30.5231 32.8033 29.3402 33.3314 27.7771 33.3314ZM31.3258 27.1846H23.2462C23.4786 26.1707 23.9538 25.3891 24.672 24.8399C25.3902 24.2696 26.2985 23.9845 27.3969 23.9845C28.3263 23.9845 29.1501 24.2485 29.8683 24.7766C30.6076 25.3046 31.0934 26.1073 31.3258 27.1846ZM41.5962 30.353C42.1454 32.3386 43.6346 33.3314 46.0637 33.3314C47.6268 33.3314 48.8097 32.8033 49.6124 31.7471L52.9076 33.6482C51.3445 35.9084 49.0421 37.0384 46.0004 37.0384C43.3811 37.0384 41.2794 36.2463 39.6952 34.6621C38.1109 33.0779 37.3188 31.0818 37.3188 28.6738C37.3188 26.2869 38.1004 24.3013 39.6635 22.7171C41.2266 21.1117 43.2333 20.3091 45.6835 20.3091C48.007 20.3091 49.9187 21.1117 51.4184 22.7171C52.9393 24.3224 53.6997 26.308 53.6997 28.6738C53.6997 29.2018 53.6469 29.7616 53.5413 30.353H41.5962ZM41.5329 27.1846H49.6124C49.38 26.1073 48.8942 25.3046 48.1549 24.7766C47.4367 24.2485 46.6129 23.9845 45.6835 23.9845C44.5851 23.9845 43.6768 24.2696 42.9587 24.8399C42.2405 25.3891 41.7652 26.1707 41.5329 27.1846ZM88.303 20.7526H92.3903V36.5949H88.303V34.7255C87.0779 36.2675 85.3564 37.0384 83.1385 37.0384C81.0262 37.0384 79.2096 36.2358 77.6888 34.6304C76.189 33.004 75.4392 31.0184 75.4392 28.6738C75.4392 26.3291 76.189 24.3541 77.6888 22.7488C79.2096 21.1223 81.0262 20.3091 83.1385 20.3091C85.3564 20.3091 87.0779 21.08 88.303 22.622V20.7526ZM80.7621 31.9056C81.5859 32.7294 82.6315 33.1413 83.8989 33.1413C85.1663 33.1413 86.2119 32.7294 87.0357 31.9056C87.8806 31.0606 88.303 29.9834 88.303 28.6738C88.303 27.3641 87.8806 26.2974 87.0357 25.4736C86.2119 24.6287 85.1663 24.2062 83.8989 24.2062C82.6315 24.2062 81.5859 24.6287 80.7621 25.4736C79.9384 26.2974 79.5265 27.3641 79.5265 28.6738C79.5265 29.9834 79.9384 31.0606 80.7621 31.9056ZM105 20.4358C103.923 20.4358 102.941 20.6893 102.053 21.1962C101.187 21.7032 100.564 22.4636 100.184 23.4775V20.7526H96.0967V36.5949H100.184V29.0223C100.184 27.5014 100.67 26.4136 101.641 25.7588C102.634 25.104 103.754 24.8505 105 24.9984V20.4358Z" fill="#FFFEFE"/>
</svg>
