<svg width="105" height="38" viewBox="0 0 105 38" fill="none" xmlns="http://www.w3.org/2000/svg">
<path fill-rule="evenodd" clip-rule="evenodd" d="M68.3783 22.4744V15.545C68.7344 12.5772 71.2986 5.6444 78.7063 1.65566C81.318 0.468531 86.755 -1.19345 87.6097 1.65566C88.6782 5.21704 86.5413 18.038 73.7204 17.6819C73.2455 14.3579 74.2902 7.28265 82.2677 5.57318C82.5051 5.57318 82.7663 5.64441 81.9115 5.92932C80.8431 6.28546 75.501 10.203 75.8572 15.9012C77.994 15.7825 82.7663 14.263 84.7606 9.13457C85.2355 7.35388 86.0427 3.50758 85.4729 2.36794C84.7606 0.94339 75.501 4.35618 74.4326 7.56142C72.426 11.0014 72.496 12.8262 72.5997 15.5277C72.6248 16.1824 72.6519 16.8887 72.6519 17.6819V36.9133H68.3783V35.8365C67.0613 36.7404 65.4668 37.2693 63.7488 37.2693C58.7629 37.2693 55.5576 33.602 55.5576 29.0781C55.5576 24.5542 58.8688 20.5308 63.3927 20.5308C65.2118 20.5308 66.9501 21.3045 68.3783 22.4744ZM68.3783 27.2941C67.6797 25.6228 66.0294 24.4484 64.1048 24.4484C61.5478 24.4484 59.475 26.5213 59.475 29.0782C59.475 31.6352 61.5478 33.708 64.1048 33.708C66.0294 33.708 67.6797 32.5336 68.3783 30.8624V27.2941Z" fill="#111111"/>
<path fill-rule="evenodd" clip-rule="evenodd" d="M3.16844 35.6635C4.66817 36.6351 6.51643 37.121 8.71322 37.121C11.1001 37.121 13.0329 36.519 14.5115 35.3149C16.0112 34.1109 16.7611 32.4845 16.7611 30.4355C16.7611 29.8019 16.6766 29.221 16.5076 28.6929C16.3597 28.1437 16.1696 27.679 15.9373 27.2988C15.726 26.9186 15.4092 26.5489 14.9867 26.1898C14.5643 25.8307 14.1841 25.5456 13.8461 25.3343C13.5293 25.1231 13.0646 24.9013 12.452 24.669C11.8605 24.4155 11.3853 24.236 11.0262 24.1303C10.6882 24.0036 10.1813 23.8346 9.50533 23.6234C7.85774 23.1164 6.73822 22.6517 6.14678 22.2293C5.57646 21.7857 5.2913 21.2154 5.2913 20.5183C5.2913 19.8635 5.54478 19.3354 6.05173 18.9341C6.5798 18.5116 7.29798 18.3004 8.20627 18.3004C10.1496 18.3004 11.5648 19.2509 12.452 21.152L16.1274 19.0291C15.367 17.466 14.3002 16.2515 12.9273 15.3854C11.5754 14.4983 10.0017 14.0547 8.20627 14.0547C6.19959 14.0547 4.47807 14.6567 3.04171 15.8607C1.62647 17.0436 0.918849 18.6384 0.918849 20.6451C0.918849 21.659 1.09839 22.5461 1.45748 23.3065C1.81657 24.067 2.33409 24.7007 3.01002 25.2076C3.70708 25.6934 4.39358 26.0842 5.06951 26.3799C5.76657 26.6757 6.61149 26.9714 7.60427 27.2671C9.39972 27.7741 10.646 28.2493 11.343 28.6929C12.0401 29.1154 12.3886 29.7174 12.3886 30.4989C12.3886 31.1748 12.1035 31.7346 11.5331 32.1782C10.9628 32.6218 10.0651 32.8436 8.83996 32.8436C6.3052 32.8436 4.60481 31.7135 3.73876 29.4533L0 31.6396C0.612566 33.3294 1.66871 34.6707 3.16844 35.6635ZM27.7771 33.4139C25.348 33.4139 23.8588 32.4211 23.3096 30.4355H35.2546C35.3602 29.8441 35.4131 29.2843 35.4131 28.7563C35.4131 26.3905 34.6526 24.4049 33.1318 22.7996C31.632 21.1942 29.7204 20.3916 27.3969 20.3916C24.9466 20.3916 22.9399 21.1942 21.3768 22.7996C19.8137 24.3838 19.0322 26.3694 19.0322 28.7563C19.0322 31.1643 19.8243 33.1604 21.4085 34.7446C22.9928 36.3288 25.0945 37.121 27.7137 37.121C30.7554 37.121 33.0578 35.9909 34.6209 33.7307L31.3258 31.8297C30.5231 32.8858 29.3402 33.4139 27.7771 33.4139ZM31.3258 27.2671H23.2462C23.4786 26.2532 23.9538 25.4716 24.672 24.9225C25.3902 24.3521 26.2985 24.067 27.3969 24.067C28.3263 24.067 29.1501 24.331 29.8683 24.8591C30.6076 25.3872 31.0934 26.1898 31.3258 27.2671ZM41.5962 30.4355C42.1454 32.4211 43.6346 33.4139 46.0637 33.4139C47.6268 33.4139 48.8097 32.8858 49.6124 31.8297L52.9076 33.7307C51.3445 35.9909 49.0421 37.121 46.0004 37.121C43.3811 37.121 41.2794 36.3288 39.6952 34.7446C38.1109 33.1604 37.3188 31.1643 37.3188 28.7563C37.3188 26.3694 38.1004 24.3838 39.6635 22.7996C41.2266 21.1942 43.2333 20.3916 45.6835 20.3916C48.007 20.3916 49.9187 21.1942 51.4184 22.7996C52.9393 24.4049 53.6997 26.3905 53.6997 28.7563C53.6997 29.2843 53.6469 29.8441 53.5413 30.4355H41.5962ZM41.5329 27.2671H49.6124C49.38 26.1898 48.8942 25.3872 48.1549 24.8591C47.4367 24.331 46.6129 24.067 45.6835 24.067C44.5851 24.067 43.6768 24.3521 42.9587 24.9225C42.2405 25.4716 41.7652 26.2532 41.5329 27.2671ZM88.303 20.8352H92.3903V36.6774H88.303V34.808C87.0779 36.35 85.3564 37.121 83.1385 37.121C81.0262 37.121 79.2096 36.3183 77.6888 34.7129C76.189 33.0865 75.4392 31.1009 75.4392 28.7563C75.4392 26.4116 76.189 24.4366 77.6888 22.8313C79.2096 21.2048 81.0262 20.3916 83.1385 20.3916C85.3564 20.3916 87.0779 21.1626 88.303 22.7045V20.8352ZM80.7621 31.9881C81.5859 32.8119 82.6315 33.2238 83.8989 33.2238C85.1663 33.2238 86.2119 32.8119 87.0357 31.9881C87.8806 31.1432 88.303 30.0659 88.303 28.7563C88.303 27.4466 87.8806 26.3799 87.0357 25.5561C86.2119 24.7112 85.1663 24.2888 83.8989 24.2888C82.6315 24.2888 81.5859 24.7112 80.7621 25.5561C79.9384 26.3799 79.5265 27.4466 79.5265 28.7563C79.5265 30.0659 79.9384 31.1432 80.7621 31.9881ZM105 20.5183C103.923 20.5183 102.941 20.7718 102.053 21.2787C101.187 21.7857 100.564 22.5461 100.184 23.56V20.8352H96.0967V36.6774H100.184V29.1048C100.184 27.5839 100.67 26.4961 101.641 25.8413C102.634 25.1865 103.754 24.933 105 25.0809V20.5183Z" fill="#111111"/>
</svg>
